<svg width="448" height="452" viewBox="0 0 448 452" fill="none" xmlns="http://www.w3.org/2000/svg">
<path d="M224.47 -2.28882e-05C158.667 -2.28882e-05 105 53.6613 105 119.469C105 185.272 158.662 238.939 224.47 238.939C290.272 238.939 343.939 185.272 343.939 119.469C343.939 53.6666 290.278 -2.28882e-05 224.47 -2.28882e-05ZM224.47 29.864C274.131 29.864 314.068 69.8013 314.068 119.463C314.068 169.124 274.131 209.061 224.47 209.061C174.808 209.061 134.871 169.124 134.871 119.463C134.871 69.8013 174.808 29.864 224.47 29.864Z" fill="black"/>
<path d="M224 212.862C100.407 212.862 0 309.783 0 430.328V451.798H29.864V430.328C29.864 326.318 115.943 242.728 223.997 242.728C332.049 242.728 418.131 326.316 418.131 430.328V451.798H447.995V430.328C447.995 309.782 347.588 212.862 223.995 212.862H224Z" fill="black"/>
</svg>
